<svg width="100" height="100" viewBox="0 0 100 100" fill="none" xmlns="http://www.w3.org/2000/svg">
<mask id="mask0_1054_3209" style="mask-type:alpha" maskUnits="userSpaceOnUse" x="0" y="0" width="100" height="100">
<circle cx="50" cy="50" r="50" fill="#F5F7F8"/>
</mask>
<g mask="url(#mask0_1054_3209)">
<circle cx="50" cy="50" r="50" fill="#313131"/>
<path d="M43 50.5595L-10 70.5595L3.5 92.0596L47.5 65.5596L64.5 56L66 41.5596C64 38.3929 59.1 31.8595 55.5 31.0595C51.9 30.2595 45 37.7262 42 41.5595L43 50.5595Z" fill="black" stroke="#FF9500" stroke-width="2"/>
<path d="M56.7099 50.5404L109.039 70.5209L95.7099 92L52.2669 65.5259L35.5391 58L34.0011 41.5493C35.9758 38.3857 40.8138 31.8586 44.3682 31.0594C47.9226 30.2602 54.7353 37.7196 57.6973 41.5492L56.7099 50.5404Z" fill="#313131"/>
<path d="M56.7099 50.5404L109.039 70.5209L95.7099 92L52.2669 65.5259L35.5391 58L34.0011 41.5493C35.9758 38.3857 40.8138 31.8586 44.3682 31.0594C47.9226 30.2602 54.7353 37.7196 57.6973 41.5492L56.7099 50.5404Z" fill="url(#paint0_linear_1054_3209)"/>
<path d="M56.7099 50.5404L109.039 70.5209L95.7099 92L52.2669 65.5259L35.5391 58L34.0011 41.5493C35.9758 38.3857 40.8138 31.8586 44.3682 31.0594C47.9226 30.2602 54.7353 37.7196 57.6973 41.5492L56.7099 50.5404Z" stroke="#FF9500" stroke-width="2"/>
<path d="M66.0006 41.5597C64.0006 38.393 59.1006 31.8596 55.5006 31.0596C55.5006 31.0596 43.5006 46.0001 50.0006 52.5001C56.5006 59.0001 61.5005 57.0001 64.5006 56.0001C67.5007 55 66.0006 41.5597 66.0006 41.5597Z" fill="black" stroke="#FF9500" stroke-width="2"/>
</g>
<defs>
<linearGradient id="paint0_linear_1054_3209" x1="109.039" y1="49.9014" x2="81.4499" y2="93.0587" gradientUnits="userSpaceOnUse">
<stop stop-color="#383838"/>
<stop offset="1"/>
</linearGradient>
</defs>
</svg>
