<svg width="100" height="100" viewBox="0 0 100 100" fill="none" xmlns="http://www.w3.org/2000/svg">
<mask id="mask0_1054_3216" style="mask-type:alpha" maskUnits="userSpaceOnUse" x="0" y="0" width="100" height="100">
<circle cx="50" cy="50" r="50" fill="#F5F7F8"/>
</mask>
<g mask="url(#mask0_1054_3216)">
<circle cx="50" cy="50" r="50" fill="#313131"/>
<path d="M6.61223 51.7113C6.53638 51.6366 6.46525 51.5661 6.39891 51.5C6.46525 51.4339 6.53638 51.3634 6.61223 51.2887C7.1984 50.7116 8.06653 49.8835 9.18661 48.8881C11.4277 46.8965 14.6723 44.2396 18.6805 41.5836C26.7141 36.26 37.724 31 49.822 31C61.92 31 72.9299 36.26 80.9636 41.5836C84.9717 44.2396 88.2163 46.8965 90.4575 48.8881C91.5775 49.8835 92.4457 50.7116 93.0318 51.2887C93.1077 51.3634 93.1788 51.4339 93.2451 51.5C93.1788 51.5661 93.1077 51.6366 93.0318 51.7113C92.4457 52.2884 91.5775 53.1165 90.4575 54.1119C88.2163 56.1035 84.9717 58.7604 80.9636 61.4164C72.9299 66.74 61.92 72 49.822 72C37.724 72 26.7141 66.74 18.6805 61.4164C14.6723 58.7604 11.4277 56.1035 9.18661 54.1119C8.06653 53.1165 7.1984 52.2884 6.61223 51.7113Z" fill="black" stroke="#FF9500" stroke-width="2"/>
<mask id="mask1_1054_3216" style="mask-type:alpha" maskUnits="userSpaceOnUse" x="5" y="30" width="90" height="43">
<path d="M6.61223 51.7113C6.53638 51.6366 6.46525 51.5661 6.39891 51.5C6.46525 51.4339 6.53638 51.3634 6.61223 51.2887C7.1984 50.7116 8.06653 49.8835 9.18661 48.8881C11.4277 46.8965 14.6723 44.2396 18.6805 41.5836C26.7141 36.26 37.724 31 49.822 31C61.92 31 72.9299 36.26 80.9636 41.5836C84.9717 44.2396 88.2163 46.8965 90.4575 48.8881C91.5775 49.8835 92.4457 50.7116 93.0318 51.2887C93.1077 51.3634 93.1788 51.4339 93.2451 51.5C93.1788 51.5661 93.1077 51.6366 93.0318 51.7113C92.4457 52.2884 91.5775 53.1165 90.4575 54.1119C88.2163 56.1035 84.9717 58.7604 80.9636 61.4164C72.9299 66.74 61.92 72 49.822 72C37.724 72 26.7141 66.74 18.6805 61.4164C14.6723 58.7604 11.4277 56.1035 9.18661 54.1119C8.06653 53.1165 7.1984 52.2884 6.61223 51.7113Z" fill="white" stroke="#FF9500" stroke-width="2"/>
</mask>
<g mask="url(#mask1_1054_3216)">
<circle cx="50.5511" cy="47.8558" r="21.2288" fill="black" stroke="#FF9500" stroke-width="2"/>
<mask id="mask2_1054_3216" style="mask-type:alpha" maskUnits="userSpaceOnUse" x="28" y="25" width="45" height="46">
<circle cx="50.5511" cy="47.8558" r="21.2288" fill="white" stroke="#FF9500" stroke-width="2"/>
</mask>
<g mask="url(#mask2_1054_3216)">
<line x1="19.6621" y1="47.9487" x2="85.2553" y2="47.9487" stroke="#FF9500" stroke-width="2"/>
<line x1="22.0312" y1="60.587" x2="82.081" y2="34.1958" stroke="#FF9500" stroke-width="2"/>
<line x1="22.0312" y1="60.587" x2="82.081" y2="34.1958" stroke="#FF9500" stroke-width="2"/>
<line x1="23.9238" y1="75.4286" x2="79.5814" y2="19.7709" stroke="#FF9500" stroke-width="2"/>
<line x1="37.2478" y1="84.6176" x2="65.8081" y2="11.27" stroke="#FF9500" stroke-width="2"/>
<line x1="51.459" y1="81.103" x2="51.459" y2="15.5098" stroke="#FF9500" stroke-width="2"/>
<line x1="64.7388" y1="78.7339" x2="38.3476" y2="18.6841" stroke="#FF9500" stroke-width="2"/>
<line x1="51.459" y1="81.103" x2="51.459" y2="15.5098" stroke="#FF9500" stroke-width="2"/>
<line x1="64.7388" y1="78.7339" x2="38.3476" y2="18.6841" stroke="#FF9500" stroke-width="2"/>
<line x1="79.58" y1="76.8428" x2="23.9223" y2="21.1852" stroke="#FF9500" stroke-width="2"/>
<line x1="88.77" y1="63.5188" x2="15.4224" y2="34.9585" stroke="#FF9500" stroke-width="2"/>
</g>
<path d="M61 48C61 54.1157 56.2593 59 50.5 59C44.7407 59 40 54.1157 40 48C40 41.8843 44.7407 37 50.5 37C56.2593 37 61 41.8843 61 48Z" fill="black" stroke="#FF9500" stroke-width="2"/>
<circle cx="33.7881" cy="37.6523" r="3.73729" fill="black" stroke="#FF9500" stroke-width="2"/>
</g>
<path d="M6.61223 51.7113C6.53638 51.6366 6.46525 51.5661 6.39891 51.5C6.46525 51.4339 6.53638 51.3634 6.61223 51.2887C7.1984 50.7116 8.06653 49.8835 9.18661 48.8881C11.4277 46.8965 14.6723 44.2396 18.6805 41.5836C26.7141 36.26 37.724 31 49.822 31C61.92 31 72.9299 36.26 80.9636 41.5836C84.9717 44.2396 88.2163 46.8965 90.4575 48.8881C91.5775 49.8835 92.4457 50.7116 93.0318 51.2887C93.1077 51.3634 93.1788 51.4339 93.2452 51.5C93.1788 51.5661 93.1077 51.6366 93.0318 51.7113C92.4457 52.2884 91.5775 53.1165 90.4575 54.1119C88.2163 56.1035 84.9717 58.7604 80.9636 61.4164C72.9299 66.74 61.92 72 49.822 72C37.724 72 26.7141 66.74 18.6805 61.4164C14.6723 58.7604 11.4277 56.1035 9.18661 54.1119C8.06653 53.1165 7.1984 52.2884 6.61223 51.7113Z" stroke="#FF9500" stroke-width="2"/>
</g>
</svg>
