<svg width="100" height="100" viewBox="0 0 100 100" fill="none" xmlns="http://www.w3.org/2000/svg">
<mask id="mask0_1056_3506" style="mask-type:alpha" maskUnits="userSpaceOnUse" x="0" y="0" width="100" height="100">
<circle cx="50" cy="50" r="50" fill="#F5F7F8"/>
</mask>
<g mask="url(#mask0_1056_3506)">
<circle cx="50" cy="50" r="50" fill="#313131"/>
<ellipse cx="49.8685" cy="50.0076" rx="35.7796" ry="11.4678" transform="rotate(-37.7218 49.8685 50.0076)" stroke="#FF9500" stroke-width="2"/>
<ellipse cx="49.89" cy="49.9573" rx="35.7796" ry="11.4678" transform="rotate(-179.434 49.89 49.9573)" stroke="#FF9500" stroke-width="2"/>
<ellipse cx="47.7525" cy="49.8497" rx="35.7796" ry="11.4678" transform="rotate(-125.19 47.7525 49.8497)" stroke="#FF9500" stroke-width="2"/>
<path d="M50 29C61.598 29 71 38.402 71 50C71 61.598 61.598 71 50 71C38.402 71 29 61.598 29 50C29 38.402 38.402 29 50 29Z" fill="url(#paint0_linear_1056_3506)" stroke="#FF9500" stroke-width="2"/>
<path d="M78.1692 28.1165C82.0442 33.1263 72.5145 46.9884 56.8841 59.0784C41.2537 71.1685 25.4414 76.9082 21.5664 71.8984" stroke="#FF9500" stroke-width="2"/>
<path d="M17.1682 76.4449C16.8616 76.9043 16.9855 77.5252 17.4449 77.8318C17.9043 78.1384 18.5252 78.0145 18.8318 77.5551L17.1682 76.4449ZM39.6273 44.5915L40.4591 44.0365L39.6273 42.79L38.7955 44.0365L39.6273 44.5915ZM50.4409 60.7958L49.6091 61.3509L50.4409 62.5973L51.2727 61.3509L50.4409 60.7958ZM79.9807 17.8043C79.8726 17.2627 79.3459 16.9113 78.8043 17.0193L69.9783 18.7803C69.4367 18.8884 69.0852 19.415 69.1933 19.9566C69.3014 20.4982 69.828 20.8497 70.3696 20.7416L78.215 19.1763L79.7803 27.0217C79.8884 27.5633 80.415 27.9148 80.9566 27.8067C81.4982 27.6987 81.8497 27.172 81.7416 26.6304L79.9807 17.8043ZM18.8318 77.5551L40.4591 45.1466L38.7955 44.0365L17.1682 76.4449L18.8318 77.5551ZM38.7955 45.1466L49.6091 61.3509L51.2727 60.2407L40.4591 44.0365L38.7955 45.1466ZM51.2727 61.3509L79.8318 18.5551L78.1682 17.4449L49.6091 60.2407L51.2727 61.3509Z" fill="#A0A0A0"/>
</g>
<path d="M14.1142 49.6041C14.1767 43.2709 30.2457 38.295 50.0052 38.4901C69.7648 38.6851 85.7324 43.9773 85.6699 50.3105" stroke="#FF9500" stroke-width="2"/>
<path d="M27.134 20.609C32.31 16.959 45.7377 27.0917 57.1255 43.2408C68.5134 59.39 73.5491 75.4404 68.373 79.0903" stroke="#FF9500" stroke-width="2"/>
<defs>
<linearGradient id="paint0_linear_1056_3506" x1="38.2552" y1="72" x2="61.1362" y2="44.0914" gradientUnits="userSpaceOnUse">
<stop stop-color="#313131"/>
<stop offset="1" stop-color="#4D4D4D"/>
</linearGradient>
</defs>
</svg>
